<?xml version="1.0" standalone="no"?>
<!DOCTYPE svg PUBLIC "-//W3C//DTD SVG 20010904//EN"
 "http://www.w3.org/TR/2001/REC-SVG-20010904/DTD/svg10.dtd">
<svg version="1.0" xmlns="http://www.w3.org/2000/svg"
 width="700.000000pt" height="700.000000pt" viewBox="0 0 700.000000 700.000000"
 preserveAspectRatio="xMidYMid meet">
<metadata>
Created by potrace 1.14, written by Peter Selinger 2001-2017
</metadata>
<g transform="translate(0.000000,700.000000) scale(0.100000,-0.100000)"
fill="#000000" stroke="none">
<path d="M3390 4986 c-3 -2 -29 -7 -58 -10 -94 -10 -236 -47 -322 -83 -219
-92 -358 -182 -517 -336 l-71 -70 -29 20 c-113 81 -331 155 -498 170 -150 14
-256 6 -431 -31 -11 -2 -56 -16 -100 -31 -410 -141 -680 -467 -759 -915 -12
-72 -15 -288 -4 -360 39 -266 163 -509 348 -684 35 -34 69 -66 75 -72 7 -6 43
-32 81 -58 233 -160 524 -233 805 -201 118 13 318 74 380 116 l23 15 -32 23
c-49 35 -96 37 -197 8 -49 -14 -109 -29 -134 -33 -25 -3 -54 -8 -65 -10 -11
-3 -62 -5 -113 -4 -297 0 -610 134 -794 339 -177 197 -270 461 -263 751 3 168
33 289 106 436 118 240 288 401 549 518 83 37 172 59 304 74 305 37 653 -95
873 -331 253 -272 347 -643 253 -1002 -51 -191 -196 -417 -343 -534 -22 -17
-26 -13 -101 114 -81 135 -144 310 -171 470 -11 65 -15 356 -5 405 4 25 11 61
14 80 11 70 58 217 97 299 48 103 57 147 36 188 -33 63 -41 61 -91 -26 -71
-128 -137 -307 -161 -441 -20 -107 -23 -160 -21 -310 4 -215 18 -297 79 -475
117 -339 375 -639 709 -824 103 -57 305 -129 409 -146 19 -3 45 -7 59 -10 124
-22 365 -22 472 -1 7 2 31 6 53 10 275 53 540 192 746 393 l76 74 64 -35 c228
-125 513 -168 779 -115 75 14 83 16 150 39 475 159 806 618 804 1115 -2 374
-153 711 -414 920 -275 222 -653 315 -998 246 -116 -23 -282 -83 -282 -102 0
-18 56 -69 79 -72 13 -2 61 8 105 23 267 89 568 64 836 -70 330 -166 542 -514
554 -911 17 -594 -474 -1095 -1069 -1090 -61 0 -144 7 -180 15 -169 37 -267
77 -400 164 -238 157 -404 408 -460 696 -14 69 -15 321 -2 374 29 113 41 153
67 216 38 90 99 194 154 261 47 57 130 140 163 162 21 14 24 14 42 -8 11 -13
41 -60 67 -103 137 -230 202 -452 206 -706 1 -71 -10 -229 -17 -240 -2 -3 -6
-25 -10 -49 -10 -65 -67 -235 -108 -319 -45 -92 -49 -119 -26 -171 18 -41 38
-51 57 -28 59 74 169 353 197 502 126 671 -197 1324 -805 1629 -211 106 -379
146 -635 152 -100 3 -183 3 -185 0z m390 -136 c110 -20 279 -71 318 -96 12 -8
22 -12 22 -10 0 3 37 -16 82 -41 98 -54 200 -128 286 -208 l63 -58 -33 -26
c-54 -42 -157 -152 -203 -216 -151 -210 -226 -440 -225 -690 1 -55 2 -111 4
-125 2 -14 7 -47 10 -72 12 -85 56 -221 105 -323 70 -144 172 -275 302 -389
l44 -38 -80 -75 c-191 -179 -461 -311 -710 -348 -22 -4 -51 -8 -65 -11 -38 -7
-249 -6 -305 1 -307 38 -571 161 -790 368 l-89 84 68 63 c37 35 96 102 132
149 165 219 245 470 238 741 -8 317 -123 582 -352 813 l-77 79 80 75 c203 190
491 329 740 358 27 4 51 8 53 10 13 13 289 1 382 -15z"/>
</g>
</svg>
