 <svg width="121.96px" height="121.97px" viewBox="0 0 121.96 121.97"><g transform="translate(2307.989 -130.567)"><g><g><path class="st0" d="M-2248.5,135.5l1.95-0.04l0.01,0.71l-2.86,0.06l-0.12-5.65l0.91-0.02L-2248.5,135.5z"/><path class="st0" d="M-2240.46,130.89l-0.55,5.62l-0.91-0.09l0.55-5.62L-2240.46,130.89z"/><path class="st0" d="M-2231.56,132.48l-0.16,0.72l-2.36-0.54l-0.39,1.71l1.95,0.45l-0.16,0.69l-1.95-0.45 l-0.55,2.4l-0.89-0.2l1.26-5.51L-2231.56,132.48z"/><path class="st0" d="M-2225.7,135.14l-0.62,1.6l1.94,0.75l-0.25,0.66l-1.94-0.75l-0.63,1.63l2.16,0.84 l-0.27,0.69l-3.01-1.17l2.04-5.26l3.01,1.17l-0.27,0.69L-2225.7,135.14z"/><path class="st0" d="M-2219.85,142.46l1.7,0.96l-0.35,0.62l-2.5-1.4l2.76-4.93l0.8,0.45L-2219.85,142.46z"/><path class="st0" d="M-2203.98,156.59l-0.6-0.68l1.3-4.82l-3.12,2.76l-0.6-0.68l4.23-3.74l0.6,0.68l-1.31,4.83 l3.13-2.77l0.6,0.68L-2203.98,156.59z"/><path class="st0" d="M-2208.19,144.82c0.18,0.45,0.23,0.95,0.15,1.43c-0.09,0.51-0.31,1-0.64,1.4 c-0.32,0.41-0.73,0.74-1.21,0.94c-0.45,0.19-0.94,0.26-1.42,0.19c-0.49-0.07-0.96-0.28-1.34-0.59c-0.4-0.3-0.7-0.71-0.89-1.18 c-0.18-0.46-0.23-0.95-0.15-1.43c0.09-0.51,0.31-1,0.64-1.4c0.32-0.41,0.73-0.74,1.21-0.94c0.45-0.19,0.94-0.25,1.43-0.18 c0.5,0.08,0.96,0.28,1.35,0.6C-2208.68,143.95-2208.37,144.35-2208.19,144.82z M-2210.51,143.9c-0.33-0.05-0.66,0.01-0.96,0.15 c-0.34,0.16-0.63,0.4-0.85,0.7c-0.24,0.29-0.41,0.63-0.49,0.99c-0.07,0.32-0.04,0.66,0.07,0.97c0.13,0.31,0.33,0.59,0.6,0.79 c0.26,0.21,0.57,0.35,0.9,0.4c0.33,0.04,0.66-0.01,0.96-0.15c0.34-0.16,0.63-0.4,0.85-0.7c0.24-0.29,0.41-0.63,0.49-0.99 c0.07-0.32,0.05-0.66-0.07-0.96c-0.12-0.31-0.33-0.59-0.6-0.79C-2209.87,144.1-2210.18,143.95-2210.51,143.9L-2210.51,143.9z"/><path class="st0" d="M-2194.36,161.49c-0.05,0.55-0.29,1.07-0.69,1.46l-0.5-0.82c0.19-0.26,0.3-0.57,0.31-0.89 c0-0.35-0.1-0.7-0.29-0.99c-0.17-0.29-0.41-0.52-0.71-0.68c-0.29-0.15-0.62-0.22-0.94-0.19c-0.37,0.03-0.73,0.16-1.04,0.36  c-0.33,0.19-0.62,0.46-0.82,0.79c-0.18,0.28-0.26,0.61-0.25,0.95c0.02,0.35,0.13,0.69,0.32,0.99c0.22,0.38,0.58,0.67,1,0.8 c0.44,0.14,0.92,0.1,1.34-0.1l-1.08-1.77l0.57-0.35l1.48,2.42l-0.75,0.45c-0.38,0.16-0.79,0.23-1.2,0.21 c-0.41-0.02-0.82-0.15-1.17-0.36c-0.39-0.24-0.71-0.57-0.94-0.96c-0.27-0.43-0.43-0.93-0.44-1.43c-0.01-0.48,0.12-0.95,0.37-1.37 c0.27-0.44,0.65-0.81,1.09-1.07c0.44-0.28,0.94-0.44,1.45-0.48c0.48-0.03,0.95,0.07,1.37,0.3c0.44,0.25,0.81,0.61,1.07,1.05 C-2194.48,160.3-2194.32,160.89-2194.36,161.49z"/><path class="st0" d="M-2187.28,179.01l-5.38,1.4l-0.23-0.89l4.03-1.05l-4.44-0.51l-0.2-0.77l3.63-2.61 l-4.03,1.05l-0.23-0.88l5.38-1.4l0.28,1.07l-3.83,2.9l4.75,0.63L-2187.28,179.01z"/><path class="st0" d="M-2186.98,185.78l-1.71,0.14l0.18,2.07l-0.7,0.06l-0.18-2.07l-1.75,0.15l0.2,2.31 l-0.74,0.06l-0.27-3.22l5.63-0.48l0.27,3.22l-0.73,0.06L-2186.98,185.78z"/><path class="st0" d="M-2186.52,199.56l-5.54-0.46l0.08-0.92l4.15,0.35l-4.02-1.95l0.07-0.8l4.29-1.26 l-4.15-0.35l0.08-0.91l5.54,0.46l-0.09,1.1l-4.58,1.47l4.27,2.17L-2186.52,199.56z"/><path class="st0" d="M-2188.88,209.24c-0.35,0.34-0.78,0.58-1.26,0.69c-0.51,0.12-1.04,0.1-1.53-0.05 c-0.5-0.13-0.97-0.39-1.34-0.75c-0.35-0.34-0.6-0.77-0.73-1.24c-0.12-0.48-0.12-0.99,0.02-1.47c0.13-0.48,0.38-0.92,0.74-1.27 c0.35-0.34,0.79-0.58,1.26-0.69c0.51-0.12,1.04-0.1,1.54,0.05c0.5,0.13,0.97,0.39,1.34,0.76c0.35,0.34,0.6,0.77,0.72,1.24 c0.12,0.49,0.11,0.99-0.03,1.48C-2188.27,208.45-2188.52,208.89-2188.88,209.24z M-2188.94,206.74 c-0.09-0.32-0.26-0.61-0.51-0.83c-0.28-0.25-0.61-0.42-0.98-0.52c-0.36-0.11-0.73-0.13-1.1-0.06c-0.32,0.06-0.62,0.22-0.86,0.45 c-0.24,0.24-0.41,0.54-0.5,0.87c-0.1,0.32-0.1,0.66-0.02,0.99c0.09,0.32,0.26,0.6,0.51,0.82c0.28,0.25,0.61,0.43,0.98,0.52 c0.36,0.11,0.73,0.13,1.1,0.06c0.32-0.06,0.62-0.21,0.86-0.44c0.24-0.23,0.41-0.53,0.5-0.85 C-2188.86,207.41-2188.86,207.07-2188.94,206.74L-2188.94,206.74z"/><path class="st0" d="M-2197.42,216.25l2.64-0.3l0.28-0.59l-2.04-0.97l0.39-0.82l5.1,2.42l-0.85,1.8 c-0.19,0.5-0.57,0.9-1.06,1.12c-0.44,0.17-0.93,0.14-1.34-0.08c-0.36-0.15-0.66-0.44-0.82-0.8c-0.15-0.38-0.16-0.81-0.03-1.2 l-2.71,0.35L-2197.42,216.25z M-2193.92,215.64l-0.43,0.91c-0.32,0.67-0.18,1.14,0.41,1.42c0.24,0.13,0.51,0.15,0.77,0.07 c0.27-0.13,0.49-0.36,0.59-0.64l0.43-0.91L-2193.92,215.64z"/><path class="st0" d="M-2196,225.05l-4.74-3.07l0.5-0.77l4.74,3.07L-2196,225.05z"/><path class="st0" d="M-2200.5,229.89l-1.31-1.1l-1.34,1.59l-0.54-0.45l1.34-1.59l-1.34-1.13l-1.5,1.77 l-0.57-0.48l2.08-2.47l4.32,3.64l-2.08,2.47l-0.56-0.48L-2200.5,229.89z"/><path class="st0" d="M-2211.23,234.77c-0.06-0.28-0.03-0.57,0.08-0.83c0.13-0.32,0.34-0.6,0.61-0.82 c0.26-0.24,0.57-0.42,0.91-0.53c0.3-0.1,0.62-0.12,0.93-0.05c0.3,0.07,0.58,0.22,0.79,0.43l-0.73,0.65 c-0.18-0.17-0.41-0.26-0.66-0.26c-0.27,0-0.54,0.1-0.73,0.29c-0.19,0.14-0.31,0.36-0.33,0.59c-0.01,0.21,0.06,0.43,0.21,0.58 c0.11,0.14,0.28,0.23,0.46,0.26c0.17,0.02,0.35,0.01,0.52-0.04c0.23-0.07,0.46-0.16,0.68-0.26c0.28-0.13,0.57-0.23,0.87-0.32  c0.24-0.06,0.5-0.06,0.75-0.01c0.29,0.08,0.54,0.25,0.73,0.48c0.19,0.21,0.32,0.47,0.36,0.75c0.04,0.28-0.01,0.57-0.13,0.82 c-0.14,0.3-0.35,0.56-0.6,0.78c-0.35,0.34-0.81,0.55-1.3,0.59c-0.43,0.02-0.84-0.14-1.15-0.43l0.74-0.65 c0.17,0.13,0.37,0.21,0.59,0.21c0.24,0,0.48-0.1,0.65-0.27c0.17-0.14,0.29-0.34,0.33-0.55c0.03-0.21-0.05-0.43-0.2-0.58 c-0.11-0.13-0.26-0.22-0.44-0.25c-0.17-0.02-0.34-0.01-0.5,0.04c-0.17,0.05-0.39,0.14-0.67,0.25c-0.28,0.13-0.58,0.24-0.88,0.32 c-0.25,0.06-0.51,0.07-0.76,0.01c-0.29-0.08-0.56-0.25-0.75-0.49C-2211.05,235.28-2211.17,235.03-2211.23,234.77z"/><path class="st0" d="M-2220.75,246.62l-1.85-3.65c-0.22-0.38-0.28-0.83-0.16-1.25 c0.15-0.41,0.46-0.74,0.86-0.91c0.41-0.24,0.9-0.3,1.36-0.16c0.46,0.18,0.82,0.53,1.02,0.98l-0.81,0.41 c-0.1-0.23-0.28-0.43-0.5-0.55c-0.21-0.09-0.46-0.08-0.66,0.04c-0.19,0.08-0.34,0.24-0.39,0.44c-0.04,0.2,0,0.4,0.1,0.58 l1.85,3.65L-2220.75,246.62z"/><path class="st0" d="M-2226.93,249.15l-1.03-3.19c-0.09-0.39-0.33-0.73-0.66-0.96c-0.31-0.17-0.67-0.19-1-0.06 c-0.34,0.09-0.62,0.32-0.77,0.63c-0.14,0.38-0.12,0.8,0.03,1.17l1.03,3.19l-0.87,0.28l-1.03-3.19c-0.24-0.6-0.23-1.27,0.03-1.86 c0.28-0.52,0.76-0.9,1.32-1.05c0.55-0.21,1.15-0.17,1.68,0.08c0.55,0.33,0.95,0.86,1.1,1.49l1.03,3.19L-2226.93,249.15z"/><path class="st0" d="M-2240.1,247.2c0.1-0.26,0.28-0.49,0.51-0.66c0.28-0.2,0.61-0.32,0.96-0.37 c0.35-0.06,0.71-0.04,1.05,0.04c0.3,0.08,0.58,0.24,0.81,0.46c0.22,0.22,0.37,0.49,0.44,0.79l-0.97,0.15 c-0.06-0.24-0.21-0.44-0.41-0.58c-0.23-0.15-0.51-0.2-0.77-0.15c-0.23,0.02-0.45,0.14-0.6,0.32c-0.13,0.17-0.18,0.39-0.14,0.6 c0.02,0.18,0.11,0.35,0.24,0.47c0.13,0.11,0.29,0.2,0.46,0.24c0.17,0.05,0.41,0.1,0.71,0.15c0.3,0.04,0.61,0.11,0.9,0.2 c0.24,0.08,0.46,0.22,0.63,0.4c0.2,0.22,0.33,0.5,0.36,0.79c0.05,0.28,0.01,0.57-0.1,0.82c-0.12,0.26-0.31,0.47-0.55,0.62 c-0.28,0.17-0.59,0.29-0.92,0.33c-0.48,0.1-0.98,0.03-1.42-0.2c-0.37-0.21-0.64-0.57-0.74-0.99l0.97-0.15 c0.07,0.2,0.2,0.38,0.38,0.5c0.21,0.13,0.46,0.18,0.7,0.12c0.22-0.02,0.43-0.12,0.58-0.29c0.14-0.16,0.19-0.38,0.14-0.59 c-0.02-0.17-0.1-0.33-0.23-0.45c-0.13-0.11-0.28-0.19-0.44-0.23c-0.17-0.05-0.41-0.1-0.7-0.15c-0.31-0.04-0.62-0.11-0.92-0.2 c-0.24-0.08-0.47-0.22-0.65-0.41c-0.21-0.23-0.33-0.51-0.36-0.82C-2240.22,247.73-2240.19,247.46-2240.1,247.2z"/><path class="st0" d="M-2248.71,252.53l-0.01-0.74l1.58-0.03l-0.08-4.91l0.92-0.01l0.08,4.91l1.57-0.02 l0.01,0.74L-2248.71,252.53z"/><path class="st0" d="M-2262.64,245.89l2.3,0.61l0.73-1.07l0.94,0.25l-3.44,4.84l-1.01-0.27l-0.58-5.9l0.94,0.25 L-2262.64,245.89z M-2262.57,246.63l0.23,2.79l1.58-2.31L-2262.57,246.63z"/><path class="st0" d="M-2278.9,243.51l0.37-0.64l2.1,1.21l0.87-1.52l-1.73-1l0.35-0.61l1.73,1l1.23-2.13 l0.79,0.46l-2.82,4.9L-2278.9,243.51z"/><path class="st0" d="M-2283.71,239.26l1.06-1.35l-1.64-1.29l0.44-0.55l1.63,1.29l1.08-1.38l-1.82-1.43 l0.46-0.59l2.54,2l-3.49,4.44l-2.54-2l0.46-0.58L-2283.71,239.26z"/><path class="st0" d="M-2295.02,229.24l5.16-2.7l0.74,0.84l-2.47,3.79l4.06-2.01l0.74,0.84l-3.29,4.8l-0.66-0.75 l2.78-3.78l-4.26,2.12l-0.67-0.75l2.61-3.98l-4.08,2.32L-2295.02,229.24z"/><path class="st0" d="M-2302.8,214.91c0.14-0.57,0.46-1.08,0.92-1.44l0.4,0.88c-0.25,0.25-0.41,0.57-0.48,0.91 c-0.06,0.38,0,0.76,0.17,1.1c0.13,0.29,0.34,0.54,0.6,0.72c0.27,0.17,0.58,0.27,0.9,0.28c0.37,0,0.74-0.08,1.07-0.24 c0.34-0.15,0.64-0.37,0.88-0.65c0.21-0.25,0.34-0.54,0.39-0.86c0.04-0.31-0.01-0.64-0.15-0.92c-0.15-0.35-0.39-0.65-0.71-0.85 c-0.3-0.18-0.65-0.27-1-0.25l-0.4-0.88c0.57-0.11,1.17-0.02,1.68,0.26c0.54,0.31,0.96,0.78,1.19,1.36 c0.21,0.45,0.3,0.95,0.25,1.44c-0.05,0.47-0.23,0.92-0.53,1.29c-0.33,0.4-0.74,0.72-1.22,0.92c-0.47,0.22-0.98,0.33-1.5,0.31 c-0.47-0.02-0.93-0.17-1.32-0.44c-0.41-0.29-0.72-0.68-0.92-1.14C-2302.84,216.15-2302.92,215.52-2302.8,214.91z"/><path class="st0" d="M-2300.91,206.72l-0.52-1.88l0.69-0.19l0.76,2.76l-5.45,1.5l-0.24-0.88L-2300.91,206.72z"/><path class="st0" d="M-2307.34,200.02l5.59-0.82l0.13,0.9l-5.59,0.82L-2307.34,200.02z"/><path class="st0" d="M-2307.48,190.08c0.35-0.47,0.85-0.8,1.42-0.95l0.01,0.97c-0.33,0.13-0.61,0.36-0.8,0.65 c-0.2,0.32-0.3,0.7-0.28,1.07c0,0.32,0.09,0.63,0.26,0.9c0.18,0.27,0.43,0.48,0.72,0.61c0.34,0.15,0.71,0.23,1.08,0.21 c0.37,0,0.73-0.08,1.06-0.24c0.29-0.14,0.53-0.36,0.7-0.63c0.16-0.27,0.24-0.58,0.23-0.9c0.01-0.38-0.1-0.75-0.32-1.06 c-0.2-0.29-0.49-0.5-0.81-0.62l-0.01-0.97c0.57,0.13,1.08,0.44,1.44,0.9c0.37,0.5,0.56,1.1,0.55,1.72 c0.02,0.5-0.1,0.99-0.34,1.42c-0.23,0.41-0.58,0.75-1,0.97c-0.46,0.24-0.97,0.36-1.49,0.36c-0.52,0.02-1.03-0.09-1.5-0.31 c-0.43-0.21-0.79-0.53-1.04-0.93c-0.26-0.43-0.39-0.91-0.39-1.41C-2308.02,191.2-2307.84,190.58-2307.48,190.08z"/><path class="st0" d="M-2304.38,182.11l3.22-1.99l-0.18,1.1l-2.95,1.77l2.58,0.43l-0.15,0.9l-5.57-0.92l0.15-0.9 l2.55,0.42l-2.18-2.63l0.18-1.09L-2304.38,182.11z"/><path class="st0" d="M-2299.61,172.17c0.19,0.21,0.31,0.48,0.35,0.76c0.05,0.34,0.01,0.69-0.11,1.02 c-0.11,0.34-0.28,0.65-0.52,0.91c-0.21,0.24-0.47,0.41-0.77,0.51c-0.29,0.09-0.6,0.1-0.9,0.03l0.31-0.93 c0.24,0.05,0.49,0.02,0.7-0.1c0.24-0.13,0.41-0.36,0.48-0.62c0.09-0.22,0.09-0.46-0.01-0.68c-0.09-0.19-0.27-0.34-0.48-0.4 c-0.17-0.06-0.36-0.06-0.53,0c-0.16,0.07-0.31,0.17-0.42,0.3c-0.12,0.13-0.28,0.32-0.46,0.56c-0.18,0.25-0.38,0.49-0.59,0.71 c-0.18,0.18-0.4,0.31-0.64,0.38c-0.29,0.08-0.59,0.06-0.87-0.04c-0.27-0.08-0.51-0.25-0.69-0.46c-0.17-0.22-0.28-0.49-0.3-0.77 c-0.03-0.33,0.01-0.66,0.12-0.97c0.13-0.48,0.42-0.89,0.83-1.17c0.36-0.23,0.8-0.31,1.22-0.21l-0.31,0.93 c-0.21-0.03-0.43,0.01-0.61,0.11c-0.21,0.12-0.36,0.33-0.43,0.56c-0.08,0.21-0.08,0.44-0.01,0.65c0.08,0.2,0.25,0.34,0.46,0.4 c0.16,0.06,0.34,0.06,0.5,0c0.16-0.06,0.3-0.16,0.41-0.29c0.12-0.13,0.27-0.32,0.45-0.55c0.18-0.26,0.38-0.5,0.6-0.73 c0.18-0.18,0.41-0.31,0.66-0.39c0.3-0.08,0.61-0.06,0.89,0.05C-2300.02,171.82-2299.79,171.97-2299.61,172.17z"/><path class="st0" d="M-2293.39,159.21l-1.32,1.98l0.78,1.04l-0.54,0.81l-3.47-4.81l0.58-0.87l5.78,1.36 l-0.54,0.81L-2293.39,159.21z M-2294.11,159.04l-2.72-0.68l1.68,2.24L-2294.11,159.04z"/><path class="st0" d="M-2287.81,146.11l3.04,4.96l-0.78,0.8l-3.95-2.21l2.28,3.91l-0.78,0.8l-5.01-2.96l0.7-0.71 l3.96,2.52l-2.4-4.1l0.71-0.72l4.14,2.34l-2.59-3.92L-2287.81,146.11z"/><path class="st0" d="M-2278.08,144.29l-1.96,1.36l0.34,1.25l-0.8,0.55l-1.45-5.76l0.86-0.6l4.86,3.4l-0.8,0.56 L-2278.08,144.29z M-2278.69,143.85l-2.27-1.64l0.73,2.7L-2278.69,143.85z"/><path class="st0" d="M-2270.81,135.35l-0.17,4.05l0.88,1.86l-0.83,0.39l-0.88-1.86l-3.24-2.44l0.96-0.45 l2.29,1.81l0.06-2.92L-2270.81,135.35z"/><path class="st0" d="M-2259.96,136.69l0.24,0.98l-1,0.25l-0.24-0.98L-2259.96,136.69z"/></g></g></g></svg>