<?xml version="1.0" encoding="utf-8"?>
<!-- Generator: Adobe Illustrator 24.2.3, SVG Export Plug-In . SVG Version: 6.00 Build 0)  -->
<svg version="1.1" id="Layer_1" xmlns="http://www.w3.org/2000/svg" xmlns:xlink="http://www.w3.org/1999/xlink" x="0px" y="0px"
	 viewBox="0 0 640 480" style="enable-background:new 0 0 640 480;" xml:space="preserve">
<style type="text/css">
	.st0{fill-rule:evenodd;clip-rule:evenodd;fill:#EEE8D9;stroke:#EEE8D9;stroke-miterlimit:10;}
	.st1{fill:#ECFF8A;stroke:#76BF00;stroke-width:5;}
</style>
<g>
	<path class="st0" d="M253.8,181.9c-9.4-63-61.5-87.7-82.5-96.9c-18.6-8.2-22.7-23.3-22.7-23.3s-5,17-5,25.2
		c0,8.2-1.9,46.6,13.2,78.7c15.1,32.1,61.1,43.4,74.3,59.2s8.2,43.4,8.2,43.4s-0.6-22-15.7-35.3s-52.3-13.2-73-51
		s-22.5-108.2-4.4-134.7c8.9-13,0.7,6.9,14.5,19.5c12.8,11.7,51.5,23.4,74.3,46.6C260.9,139.8,254.5,183.2,253.8,181.9L253.8,181.9z
		"/>
	<path class="st0" d="M224.9,207.7c5.4-25,5.3-36.3-9.8-52.1c-15.4-16.1-30.4-10.7-47.5-39.1c8.9,34.5,31,31.9,43.3,50.9
		C222.8,186,223.7,207,224.9,207.7L224.9,207.7z"/>
	<path class="st0" d="M273.3,179.3c24.4-7.8,34.1-13.6,40.2-34.6c6.2-21.4-6-31.7,10.1-60.7c-25.5,25-12.2,42.8-22.5,62.9
		C291,166.7,273.2,177.9,273.3,179.3z"/>
	<path class="st0" d="M323.3,205.5c18.9,17.2,28.8,22.7,50,17.5c21.6-5.3,24.5-21,57.7-21.6c-34.4-9.6-43.1,10.9-65.7,12
		C343.1,214.6,324.5,204.8,323.3,205.5L323.3,205.5z"/>
	<path class="st0" d="M326.8,266c-5.4,25-5.3,36.3,9.8,52.1c15.4,16.1,30.4,10.7,47.5,39.1c-8.9-34.5-31-31.9-43.3-50.9
		C328.8,287.7,328,266.6,326.8,266L326.8,266z"/>
	<path class="st0" d="M282.2,294.9c-24.4,7.8-34.1,13.6-40.2,34.6c-6.2,21.4,6,31.7-10.1,60.7c25.5-25,12.2-42.8,22.5-62.9
		C264.4,307.6,282.2,296.3,282.2,294.9L282.2,294.9z"/>
	<path class="st0" d="M236.6,268.7c-18.9-17.2-28.8-22.7-50-17.5c-21.6,5.3-24.5,21-57.7,21.6c34.4,9.6,43.1-10.9,65.7-12
		C216.8,259.7,235.4,269.5,236.6,268.7L236.6,268.7z"/>
	<path class="st0" d="M312.4,187.7c49.8-39.7,45.2-97.2,42.7-119.9c-2.2-20.2,8.8-31.3,8.8-31.3s-17.2,4.1-24.3,8.2
		c-7.1,4.1-41.3,21.7-61.5,50.8s-7.1,74.6-14.1,93.9c-7,19.3-33.5,28.8-33.5,28.8s18.8-11.6,22.7-31.3c3.9-19.7-14.7-51.9,7.6-88.7
		s82.5-73.6,114.5-71.2c15.7,1.2-5.6,4-9.7,22.3c-3.8,17,5.5,56.3-3.2,87.6C352.5,172.7,311.6,188.9,312.4,187.7L312.4,187.7z"/>
	<path class="st0" d="M337.5,239.4c59.2,23.3,106.8-9.4,125.2-22.9c16.4-12,31.5-8,31.5-8s-12.2-12.9-19.3-17
		c-7.1-4.1-39.4-24.9-74.8-27.9c-35.4-3-68.1,31.2-88.4,34.7c-20.2,3.6-41.7-14.6-41.7-14.6s19.4,10.5,38.4,4
		c19-6.5,37.6-38.6,80.7-37.7c43.1,0.9,105,34.6,118.9,63.5c6.8,14.2-6.3-2.8-24.1,2.8c-16.6,5.2-46,32.9-77.5,41
		C370.5,266.6,336.1,239.3,337.5,239.4L337.5,239.4z"/>
	<path class="st0" d="M301.8,285.5c9.4,63,61.5,87.7,82.5,96.9c18.6,8.2,22.7,23.3,22.7,23.3s5-17,5-25.2c0-8.2,1.9-46.6-13.2-78.7
		c-15.1-32.1-61.1-43.4-74.3-59.2s-8.2-43.4-8.2-43.4s0.6,22,15.7,35.3s52.3,13.2,73,51s22.5,108.2,4.4,134.7
		c-8.9,13-0.7-6.9-14.5-19.5c-12.8-11.7-51.5-23.4-74.3-46.6C294.7,327.7,301.2,284.3,301.8,285.5L301.8,285.5z"/>
	<path class="st0" d="M244.8,279c-49.8,39.7-45.2,97.2-42.7,119.9c2.2,20.2-8.8,31.3-8.8,31.3s17.2-4.1,24.3-8.2
		c7.1-4.1,41.3-21.7,61.5-50.8s7.1-74.6,14.1-93.9c7-19.3,33.5-28.8,33.5-28.8S307.9,260,304,279.7c-3.9,19.7,14.7,51.9-7.6,88.7
		c-22.3,36.9-82.5,73.6-114.5,71.2c-15.7-1.2,5.6-4,9.7-22.3c3.8-17-5.5-56.3,3.2-87.6C204.7,294,245.6,277.8,244.8,279L244.8,279z"
		/>
	<path class="st0" d="M220.3,227.9c-59.2-23.3-106.8,9.4-125.2,22.9c-16.4,12-31.5,8-31.5,8s12.2,12.9,19.3,17
		c7.1,4.1,39.4,24.9,74.8,27.9c35.4,3,68.1-31.2,88.4-34.7c20.2-3.6,41.7,14.6,41.7,14.6s-19.4-10.5-38.4-4
		c-19,6.5-37.6,38.6-80.7,37.7c-43.1-0.9-105-34.6-118.9-63.5c-6.8-14.2,6.3,2.8,24.1-2.8c16.6-5.2,46-32.9,77.5-41
		C187.3,200.7,221.7,228,220.3,227.9L220.3,227.9z"/>
</g>
<g>
	<g>
		<circle class="st1" cx="249.5" cy="200" r="18.6"/>
		<circle class="st1" cx="295.5" cy="192" r="18.6"/>
		<circle class="st1" cx="321.5" cy="236" r="18.6"/>
		<circle class="st1" cx="286.5" cy="270" r="18.6"/>
		<circle class="st1" cx="240.5" cy="251" r="18.6"/>
	</g>
	<circle class="st1" cx="279" cy="228" r="27.1"/>
</g>
</svg>
