<svg id="Layer_1" data-name="Layer 1" xmlns="http://www.w3.org/2000/svg" viewBox="0 0 486 476"><defs><style>.cls-1{fill:#fff;stroke:#fff;stroke-width:2px;}.cls-1,.cls-2{stroke-miterlimit:10;}.cls-2{fill:#eee8d9;stroke:#eee8d9;fill-rule:evenodd;}.cls-3{fill:#ecff8a;stroke:#76bf00;stroke-width:5px;}</style></defs><ellipse class="cls-1" cx="243" cy="238" rx="242" ry="237"/><path class="cls-2" d="M224.8,192.9c-9.4-63-61.5-87.7-82.5-96.9-18.6-8.2-22.7-23.3-22.7-23.3s-5,17-5,25.2-1.9,46.6,13.2,78.7,61.1,43.4,74.3,59.2,8.2,43.4,8.2,43.4-.6-22-15.7-35.3-52.3-13.2-73-51S99.1,84.7,117.2,58.2c8.9-13,.7,6.9,14.5,19.5,12.8,11.7,51.5,23.4,74.3,46.6,25.9,26.5,19.5,69.9,18.8,68.6Z" transform="translate(-5 -4)"/><path class="cls-2" d="M195.9,218.7c5.4-25,5.3-36.3-9.8-52.1-15.4-16.1-30.4-10.7-47.5-39.1,8.9,34.5,31,31.9,43.3,50.9,11.9,18.6,12.8,39.6,14,40.3Z" transform="translate(-5 -4)"/><path class="cls-2" d="M244.3,190.3c24.4-7.8,34.1-13.6,40.2-34.6,6.2-21.4-6-31.7,10.1-60.7-25.5,25-12.2,42.8-22.5,62.9C262,177.7,244.2,188.9,244.3,190.3Z" transform="translate(-5 -4)"/><path class="cls-2" d="M294.3,216.5c18.9,17.2,28.8,22.7,50,17.5,21.6-5.3,24.5-21,57.7-21.6-34.4-9.6-43.1,10.9-65.7,12-22.2,1.2-40.8-8.6-42-7.9Z" transform="translate(-5 -4)"/><path class="cls-2" d="M297.8,277c-5.4,25-5.3,36.3,9.8,52.1,15.4,16.1,30.4,10.7,47.5,39.1-8.9-34.5-31-31.9-43.3-50.9-12-18.6-12.8-39.7-14-40.3Z" transform="translate(-5 -4)"/><path class="cls-2" d="M253.2,305.9c-24.4,7.8-34.1,13.6-40.2,34.6-6.2,21.4,6,31.7-10.1,60.7,25.5-25,12.2-42.8,22.5-62.9,10-19.7,27.8-31,27.8-32.4Z" transform="translate(-5 -4)"/><path class="cls-2" d="M207.6,279.7c-18.9-17.2-28.8-22.7-50-17.5-21.6,5.3-24.5,21-57.7,21.6,34.4,9.6,43.1-10.9,65.7-12,22.2-1.1,40.8,8.7,42,7.9Z" transform="translate(-5 -4)"/><path class="cls-2" d="M283.4,198.7c49.8-39.7,45.2-97.2,42.7-119.9-2.2-20.2,8.8-31.3,8.8-31.3s-17.2,4.1-24.3,8.2-41.3,21.7-61.5,50.8S242,181.1,235,200.4s-33.5,28.8-33.5,28.8,18.8-11.6,22.7-31.3-14.7-51.9,7.6-88.7S314.3,35.6,346.3,38c15.7,1.2-5.6,4-9.7,22.3-3.8,17,5.5,56.3-3.2,87.6-9.9,35.8-50.8,52-50,50.8Z" transform="translate(-5 -4)"/><path class="cls-2" d="M308.5,250.4c59.2,23.3,106.8-9.4,125.2-22.9,16.4-12,31.5-8,31.5-8s-12.2-12.9-19.3-17-39.4-24.9-74.8-27.9-68.1,31.2-88.4,34.7S241,194.7,241,194.7s19.4,10.5,38.4,4S317,160.1,360.1,161s105,34.6,118.9,63.5c6.8,14.2-6.3-2.8-24.1,2.8-16.6,5.2-46,32.9-77.5,41-35.9,9.3-70.3-18-68.9-17.9Z" transform="translate(-5 -4)"/><path class="cls-2" d="M272.8,296.5c9.4,63,61.5,87.7,82.5,96.9,18.6,8.2,22.7,23.3,22.7,23.3s5-17,5-25.2,1.9-46.6-13.2-78.7-61.1-43.4-74.3-59.2-8.2-43.4-8.2-43.4.6,22,15.7,35.3,52.3,13.2,73,51,22.5,108.2,4.4,134.7c-8.9,13-.7-6.9-14.5-19.5-12.8-11.7-51.5-23.4-74.3-46.6-25.9-26.4-19.4-69.8-18.8-68.6Z" transform="translate(-5 -4)"/><path class="cls-2" d="M215.8,290c-49.8,39.7-45.2,97.2-42.7,119.9,2.2,20.2-8.8,31.3-8.8,31.3s17.2-4.1,24.3-8.2,41.3-21.7,61.5-50.8,7.1-74.6,14.1-93.9,33.5-28.8,33.5-28.8S278.9,271,275,290.7s14.7,51.9-7.6,88.7S184.9,453,152.9,450.6c-15.7-1.2,5.6-4,9.7-22.3,3.8-17-5.5-56.3,3.2-87.6,9.9-35.7,50.8-51.9,50-50.7Z" transform="translate(-5 -4)"/><path class="cls-2" d="M191.3,238.9c-59.2-23.3-106.8,9.4-125.2,22.9-16.4,12-31.5,8-31.5,8s12.2,12.9,19.3,17,39.4,24.9,74.8,27.9,68.1-31.2,88.4-34.7,41.7,14.6,41.7,14.6-19.4-10.5-38.4-4-37.6,38.6-80.7,37.7-105-34.6-118.9-63.5c-6.8-14.2,6.3,2.8,24.1-2.8,16.6-5.2,46-32.9,77.5-41,35.9-9.3,70.3,18,68.9,17.9Z" transform="translate(-5 -4)"/><circle class="cls-3" cx="215.5" cy="207" r="18.6"/><circle class="cls-3" cx="261.5" cy="199" r="18.6"/><circle class="cls-3" cx="287.5" cy="243" r="18.6"/><circle class="cls-3" cx="252.5" cy="277" r="18.6"/><circle class="cls-3" cx="206.5" cy="258" r="18.6"/><circle class="cls-3" cx="245" cy="235" r="27.1"/></svg>