<svg width="1257" height="446" viewBox="0 0 1257 446" fill="none" xmlns="http://www.w3.org/2000/svg">
<g clip-path="url(#clip0)">
<path d="M152.578 201.906C146.25 208.938 136.992 214.602 124.805 218.898C112.617 223.195 99.2578 225.344 84.7266 225.344C62.3828 225.344 44.5312 218.508 31.1719 204.836C17.8125 191.164 10.6641 172.141 9.72656 147.766L9.60938 133C9.60938 116.203 12.5781 101.555 18.5156 89.0547C24.4531 76.4766 32.9297 66.8281 43.9453 60.1094C55.0391 53.3125 67.8516 49.9141 82.3828 49.9141C103.633 49.9141 120.117 54.7969 131.836 64.5625C143.633 74.25 150.508 88.7422 152.461 108.039H112.852C111.445 98.5078 108.398 91.7109 103.711 87.6484C99.0234 83.5859 92.3828 81.5547 83.7891 81.5547C73.4766 81.5547 65.5078 85.9297 59.8828 94.6797C54.2578 103.43 51.4062 115.93 51.3281 132.18V142.492C51.3281 159.523 54.2188 172.336 60 180.93C65.8594 189.445 75.0391 193.703 87.5391 193.703C98.2422 193.703 106.211 191.32 111.445 186.555V160.07H82.8516V131.828H152.578V201.906ZM282.305 150.695H217.617V191.359H294.023V223H176.484V52.375H294.258V84.1328H217.617V120.109H282.305V150.695ZM374.18 162.766H351.914V223H310.781V52.375H377.93C398.164 52.375 413.984 56.8672 425.391 65.8516C436.797 74.8359 442.5 87.5312 442.5 103.938C442.5 115.812 440.078 125.656 435.234 133.469C430.469 141.281 422.969 147.609 412.734 152.453L448.359 221.242V223H404.297L374.18 162.766ZM351.914 131.008H377.93C385.742 131.008 391.602 128.977 395.508 124.914C399.492 120.773 401.484 115.031 401.484 107.688C401.484 100.344 399.492 94.6016 395.508 90.4609C391.523 86.2422 385.664 84.1328 377.93 84.1328H351.914V131.008ZM508.477 191.359H580.078V223H467.344V52.375H508.477V191.359ZM641.25 223H600.234V52.375H641.25V223ZM800.273 84.1328H749.062V223H707.93V84.1328H657.656V52.375H800.273V84.1328ZM863.906 191.359H945.469V223H812.578V201.32L893.906 84.1328H812.109V52.375H944.648V73.4688L863.906 191.359ZM1070.04 150.695H1005.35V191.359H1081.76V223H964.219V52.375H1081.99V84.1328H1005.35V120.109H1070.04V150.695ZM1241.02 223H1200.12L1139.65 116.828V223H1098.52V52.375H1139.65L1200 158.547V52.375H1241.02V223Z" fill="#B0B0B0"/>
<path d="M938.75 404.625H922.312L919.188 414H909.219L926.156 368.5H934.844L951.875 414H941.906L938.75 404.625ZM924.844 397.031H936.219L930.5 380L924.844 397.031ZM984.469 397.406C984.469 402.615 983.281 406.792 980.906 409.938C978.552 413.062 975.365 414.625 971.344 414.625C967.927 414.625 965.167 413.438 963.062 411.062V427H954.031V380.188H962.406L962.719 383.5C964.906 380.875 967.76 379.562 971.281 379.562C975.448 379.562 978.688 381.104 981 384.188C983.312 387.271 984.469 391.521 984.469 396.938V397.406ZM975.438 396.75C975.438 393.604 974.875 391.177 973.75 389.469C972.646 387.76 971.031 386.906 968.906 386.906C966.073 386.906 964.125 387.99 963.062 390.156V404C964.167 406.229 966.135 407.344 968.969 407.344C973.281 407.344 975.438 403.812 975.438 396.75ZM1009.69 414C1009.27 413.188 1008.97 412.177 1008.78 410.969C1006.59 413.406 1003.75 414.625 1000.25 414.625C996.938 414.625 994.188 413.667 992 411.75C989.833 409.833 988.75 407.417 988.75 404.5C988.75 400.917 990.073 398.167 992.719 396.25C995.385 394.333 999.229 393.365 1004.25 393.344H1008.41V391.406C1008.41 389.844 1008 388.594 1007.19 387.656C1006.4 386.719 1005.14 386.25 1003.41 386.25C1001.89 386.25 1000.69 386.615 999.812 387.344C998.958 388.073 998.531 389.073 998.531 390.344H989.5C989.5 388.385 990.104 386.573 991.312 384.906C992.521 383.24 994.229 381.938 996.438 381C998.646 380.042 1001.12 379.562 1003.88 379.562C1008.04 379.562 1011.34 380.615 1013.78 382.719C1016.24 384.802 1017.47 387.74 1017.47 391.531V406.188C1017.49 409.396 1017.94 411.823 1018.81 413.469V414H1009.69ZM1002.22 407.719C1003.55 407.719 1004.78 407.427 1005.91 406.844C1007.03 406.24 1007.86 405.438 1008.41 404.438V398.625H1005.03C1000.51 398.625 998.104 400.188 997.812 403.312L997.781 403.844C997.781 404.969 998.177 405.896 998.969 406.625C999.76 407.354 1000.84 407.719 1002.22 407.719ZM1043.41 388.656C1042.18 388.49 1041.09 388.406 1040.16 388.406C1036.74 388.406 1034.5 389.562 1033.44 391.875V414H1024.41V380.188H1032.94L1033.19 384.219C1035 381.115 1037.51 379.562 1040.72 379.562C1041.72 379.562 1042.66 379.698 1043.53 379.969L1043.41 388.656ZM1060.16 371.875V380.188H1065.94V386.812H1060.16V403.688C1060.16 404.938 1060.4 405.833 1060.88 406.375C1061.35 406.917 1062.27 407.188 1063.62 407.188C1064.62 407.188 1065.51 407.115 1066.28 406.969V413.812C1064.51 414.354 1062.69 414.625 1060.81 414.625C1054.48 414.625 1051.25 411.427 1051.12 405.031V386.812H1046.19V380.188H1051.12V371.875H1060.16ZM1079.44 380.188L1079.72 383.969C1082.11 381.031 1085.35 379.562 1089.44 379.562C1093.79 379.562 1096.78 381.281 1098.41 384.719C1100.78 381.281 1104.17 379.562 1108.56 379.562C1112.23 379.562 1114.96 380.635 1116.75 382.781C1118.54 384.906 1119.44 388.115 1119.44 392.406V414H1110.38V392.438C1110.38 390.521 1110 389.125 1109.25 388.25C1108.5 387.354 1107.18 386.906 1105.28 386.906C1102.57 386.906 1100.7 388.198 1099.66 390.781L1099.69 414H1090.66V392.469C1090.66 390.51 1090.27 389.094 1089.5 388.219C1088.73 387.344 1087.42 386.906 1085.56 386.906C1083 386.906 1081.15 387.969 1080 390.094V414H1070.97V380.188H1079.44ZM1141.97 414.625C1137.01 414.625 1132.97 413.104 1129.84 410.062C1126.74 407.021 1125.19 402.969 1125.19 397.906V397.031C1125.19 393.635 1125.84 390.604 1127.16 387.938C1128.47 385.25 1130.32 383.188 1132.72 381.75C1135.14 380.292 1137.89 379.562 1140.97 379.562C1145.59 379.562 1149.23 381.021 1151.88 383.938C1154.54 386.854 1155.88 390.99 1155.88 396.344V400.031H1134.34C1134.64 402.24 1135.51 404.01 1136.97 405.344C1138.45 406.677 1140.31 407.344 1142.56 407.344C1146.04 407.344 1148.76 406.083 1150.72 403.562L1155.16 408.531C1153.8 410.448 1151.97 411.948 1149.66 413.031C1147.34 414.094 1144.78 414.625 1141.97 414.625ZM1140.94 386.875C1139.15 386.875 1137.69 387.479 1136.56 388.688C1135.46 389.896 1134.75 391.625 1134.44 393.875H1147V393.156C1146.96 391.156 1146.42 389.615 1145.38 388.531C1144.33 387.427 1142.85 386.875 1140.94 386.875ZM1169.34 380.188L1169.62 384.094C1172.04 381.073 1175.28 379.562 1179.34 379.562C1182.93 379.562 1185.59 380.615 1187.34 382.719C1189.09 384.823 1189.99 387.969 1190.03 392.156V414H1181V392.375C1181 390.458 1180.58 389.073 1179.75 388.219C1178.92 387.344 1177.53 386.906 1175.59 386.906C1173.05 386.906 1171.15 387.99 1169.88 390.156V414H1160.84V380.188H1169.34ZM1207.72 371.875V380.188H1213.5V386.812H1207.72V403.688C1207.72 404.938 1207.96 405.833 1208.44 406.375C1208.92 406.917 1209.83 407.188 1211.19 407.188C1212.19 407.188 1213.07 407.115 1213.84 406.969V413.812C1212.07 414.354 1210.25 414.625 1208.38 414.625C1202.04 414.625 1198.81 411.427 1198.69 405.031V386.812H1193.75V380.188H1198.69V371.875H1207.72ZM1236.84 404.656C1236.84 403.552 1236.29 402.688 1235.19 402.062C1234.1 401.417 1232.35 400.844 1229.94 400.344C1221.9 398.656 1217.88 395.24 1217.88 390.094C1217.88 387.094 1219.11 384.594 1221.59 382.594C1224.09 380.573 1227.35 379.562 1231.38 379.562C1235.67 379.562 1239.09 380.573 1241.66 382.594C1244.24 384.615 1245.53 387.24 1245.53 390.469H1236.5C1236.5 389.177 1236.08 388.115 1235.25 387.281C1234.42 386.427 1233.11 386 1231.34 386C1229.82 386 1228.65 386.344 1227.81 387.031C1226.98 387.719 1226.56 388.594 1226.56 389.656C1226.56 390.656 1227.03 391.469 1227.97 392.094C1228.93 392.698 1230.53 393.229 1232.78 393.688C1235.03 394.125 1236.93 394.625 1238.47 395.188C1243.24 396.938 1245.62 399.969 1245.62 404.281C1245.62 407.365 1244.3 409.865 1241.66 411.781C1239.01 413.677 1235.59 414.625 1231.41 414.625C1228.57 414.625 1226.05 414.125 1223.84 413.125C1221.66 412.104 1219.94 410.719 1218.69 408.969C1217.44 407.198 1216.81 405.292 1216.81 403.25H1225.38C1225.46 404.854 1226.05 406.083 1227.16 406.938C1228.26 407.792 1229.74 408.219 1231.59 408.219C1233.32 408.219 1234.62 407.896 1235.5 407.25C1236.4 406.583 1236.84 405.719 1236.84 404.656Z" fill="black"/>
</g>
<defs>
<clipPath id="clip0">
<rect width="1257" height="446" fill="white"/>
</clipPath>
</defs>
</svg>
