 <svg width="422" height="382" viewBox="0 0 422 382" fill="none" xmlns="http://www.w3.org/2000/svg">
                                    <g clip-path="url(#clip0)">
                                    <path d="M291.421 10.5464C274.122 19.5317 257.188 29.2627 241.556 40.807C237.959 51.1079 238.399 62.224 236.888 72.871C237.116 74.2519 236.776 75.4928 235.154 74.8695C229.191 75.3555 225.091 80.6915 224.382 86.2063C222.633 93.1901 220.857 100.413 221.248 107.624C222.855 115.469 228.095 122.108 232.649 128.418C231.377 131.67 229.238 135.062 227.86 138.432C225.383 143.64 210.398 189 207.916 194.202C214.479 194.374 207.772 193.921 207.916 194.202C204.46 186.094 193.453 136.931 190.359 128.704C195.649 122.635 200.395 115.722 202.632 108.023C203.815 98.657 200.299 89.5352 198.915 80.4472C199.431 76.1472 194.9 73.1558 190.903 73.8494C189.775 72.8241 188.723 71.7489 189.399 70.1604C189.215 60.8183 188.934 51.4348 187.646 42.1947C172.433 29.8598 156.279 18.597 139.409 8.58059C131.607 7.03412 125.478 13.2655 118.692 15.7873C114.039 17.5461 109.373 19.4526 105.598 22.6652C99.4932 26.2051 91.0757 28.3197 87.8073 35.1143C86.1525 42.3785 87.2462 49.9878 87.0766 57.3837C87.4676 68.6413 87.3102 80.0325 88.917 91.1899C90.6812 96.4538 96.5417 98.7719 100.507 102.244C105.813 106.204 111.652 109.842 116.66 113.899C113.455 119.289 115.69 126.353 120.672 129.841C126.054 134.884 131.707 140.033 138.382 143.337C146.144 145.936 154.75 144.41 162.552 144.096C165.171 149.299 204.788 189.229 207.916 194.202C211.699 191.268 209.457 197.1 207.916 194.202C211.214 188.876 204.314 199.324 207.916 194.202C200.207 193.044 149.009 181.454 141.339 180.023C138.438 172.448 134.843 164.674 128.82 159.012C120.422 152.978 109.666 151.589 100.294 147.605C97.1445 146.872 94.6346 149.439 92.9 151.471C91.8155 151.71 90.6654 153.53 89.8597 151.941C81.3652 147.191 72.5601 142.971 63.6458 139.039C45.0866 145.756 26.8979 153.652 9.73455 163.208C4.17787 169.216 7.15204 178.05 5.49141 185.314C4.31086 193.081 5.56408 200.886 4.76663 208.676C4.9851 212.487 4.35703 216.922 6.79931 220.091C10.5578 223.428 15.4918 225.186 19.6293 228.068C32.0503 235.089 44.7088 241.795 57.8436 247.398C65.272 247.937 71.3898 242.815 78.2247 240.84C82.606 238.975 86.9843 236.569 91.3888 235.073C94.4601 240.341 101.583 242.212 107.147 239.785C114.218 237.917 121.315 235.542 127.646 231.983C134.179 226.731 137.223 218.687 140.876 211.437C149.38 211.179 199.441 194.819 207.916 194.202C204.251 187.918 211.3 200.652 207.916 194.202C203.019 200.373 167.378 241.332 162.154 247.276C154.204 245.921 145.755 245.252 137.881 247.176C128.104 251.118 121.504 259.863 113.145 265.655C110.55 268.431 111.321 273.332 114.504 275.21C111.932 277.32 108.339 278.555 105.541 280.571C99.1649 284.408 92.9645 288.51 86.9516 292.877C84.0028 312.129 81.5319 331.656 81.6181 351.144C84.9118 358.509 93.7718 360.368 99.4495 365.415C105.407 370.028 112.544 372.811 118.785 377.144C123.06 379.448 128.19 383.098 133.171 380.434C149.245 371.81 165.235 362.622 179.976 351.9C184.204 346.509 182.688 339.172 184.251 332.942C184.862 327.716 185.294 322.476 185.772 317.242C191.883 317.327 197.195 312.466 197.869 306.586C199.908 299.288 201.423 291.686 201.165 284.124C199.547 276.273 194.21 269.854 189.694 263.38C194.335 255.014 203.701 202.803 207.916 194.202C201.498 194.1 214.325 194.582 207.916 194.202C211.462 202.544 228.897 254.799 232.109 263.273C226.877 269.348 222.085 276.226 219.854 283.92C218.946 291.321 220.915 298.705 222.486 305.872C224.089 309.563 222.22 314.946 226.536 317.211C228.046 318.35 230.2 318.111 231.73 318.306C232.878 319.246 233.738 320.301 233.092 321.816C233.27 331.147 233.551 340.531 234.84 349.765C250.197 362.148 266.363 373.701 283.545 383.512C291.394 384.638 297.286 378.386 304.237 376.054C311.722 373.396 317.797 368.381 325.017 365.201C328.673 362.902 333.763 361.071 335.139 356.693C335.811 352.066 335.073 347.347 335.513 342.682C335.522 328.54 335.26 314.256 333.361 300.266C329.53 293.125 321.201 290.352 315.505 285.026C312.293 282.733 308.636 280.677 305.807 278.077C308.834 272.998 307.117 266.226 302.401 262.765C296.681 257.12 290.426 251.472 282.953 248.246C275.506 246.278 267.399 247.521 259.967 247.956C254.498 239.264 213.812 202.752 207.916 194.202C204.872 198.968 211.065 189.494 207.916 194.202C217.826 195.423 271.216 210.544 281.112 211.902C283.876 219.344 287.569 226.778 293.148 232.564C300.339 238.209 309.786 239.679 318.172 242.869C321.679 245.166 327.1 244.831 329.074 240.833C330.636 240.903 331.986 238.586 333.247 240.416C341.716 244.932 350.222 249.352 359.111 252.993C377.636 245.906 396.036 238.235 413.245 228.526C418.308 222.329 415.204 213.783 417.06 206.624C417.811 198.071 417.291 189.469 417.74 180.899C417.67 176.493 416.829 171.375 412.332 169.289C396.534 160.61 380.936 150.989 363.974 144.511C356.537 144.559 350.441 149.385 343.529 151.461C339.415 153.296 335.262 155.456 331.096 156.903C328.048 151.659 320.914 149.742 315.356 152.192C308.184 154.173 300.804 156.435 294.457 160.289C288.243 165.62 285.109 173.419 281.678 180.575C271.267 180.916 218.375 193.451 207.916 194.202C210.713 199.215 205.301 189.107 207.916 194.202C214.016 186.553 254.03 152.273 260.169 144.681C268.235 146.056 276.858 146.75 284.809 144.713C293.485 141.305 299.437 133.819 306.607 128.31C310.114 126.607 312.404 122.164 309.914 118.721C309.498 117.85 306.939 116.54 308.886 116.127C318.026 110.934 327.04 105.306 335.534 99.1003C338.494 79.8485 340.924 60.3435 340.89 40.8507C337.712 33.4872 328.741 31.7116 323.192 26.6097C316.065 21.682 308.178 17.852 300.856 13.183C297.973 11.7487 294.674 10.2508 291.421 10.5464Z" fill="white"/>
                                    <path d="M207.916 194.202C210.398 189 225.383 143.64 227.86 138.432C229.238 135.062 231.377 131.67 232.649 128.418C228.095 122.108 222.855 115.469 221.248 107.624C220.857 100.413 222.633 93.1901 224.382 86.2063C225.091 80.6915 229.191 75.3555 235.154 74.8695C236.776 75.4928 237.116 74.2519 236.888 72.871C238.399 62.224 237.959 51.1079 241.556 40.807C257.188 29.2627 274.122 19.5317 291.421 10.5464C294.674 10.2508 297.973 11.7487 300.856 13.183C308.178 17.852 316.065 21.682 323.192 26.6097C328.741 31.7116 337.712 33.4872 340.89 40.8507C340.924 60.3435 338.494 79.8485 335.534 99.1003C327.04 105.306 318.026 110.934 308.886 116.127C306.939 116.54 309.498 117.85 309.914 118.721C312.404 122.164 310.114 126.607 306.607 128.31C299.437 133.819 293.485 141.305 284.809 144.713C276.858 146.75 268.235 146.056 260.169 144.681C254.03 152.273 214.016 186.553 207.916 194.202ZM207.916 194.202C207.772 193.921 214.479 194.374 207.916 194.202ZM207.916 194.202C204.46 186.094 193.453 136.931 190.359 128.704C195.649 122.635 200.395 115.722 202.632 108.023C203.815 98.657 200.299 89.5352 198.915 80.4472C199.431 76.1472 194.9 73.1558 190.903 73.8494C189.775 72.8241 188.723 71.7489 189.399 70.1604C189.215 60.8183 188.934 51.4348 187.646 42.1947C172.433 29.8598 156.279 18.597 139.409 8.58059C131.607 7.03412 125.478 13.2655 118.692 15.7873C114.039 17.5461 109.373 19.4526 105.598 22.6652C99.4932 26.2051 91.0757 28.3197 87.8073 35.1143C86.1525 42.3785 87.2462 49.9878 87.0766 57.3837C87.4676 68.6413 87.3102 80.0325 88.917 91.1899C90.6812 96.4538 96.5417 98.7719 100.507 102.244C105.813 106.204 111.652 109.842 116.66 113.899C113.455 119.289 115.69 126.353 120.672 129.841C126.054 134.884 131.707 140.033 138.382 143.337C146.144 145.936 154.75 144.41 162.552 144.096C165.171 149.299 204.788 189.229 207.916 194.202ZM207.916 194.202C209.457 197.1 211.699 191.268 207.916 194.202ZM207.916 194.202C204.314 199.324 211.214 188.876 207.916 194.202ZM207.916 194.202C200.207 193.044 149.009 181.454 141.339 180.023C138.438 172.448 134.843 164.674 128.82 159.012C120.422 152.978 109.666 151.589 100.294 147.605C97.1445 146.872 94.6346 149.439 92.9 151.471C91.8155 151.71 90.6654 153.53 89.8597 151.941C81.3652 147.191 72.5601 142.971 63.6458 139.039C45.0866 145.756 26.8979 153.652 9.73455 163.208C4.17787 169.216 7.15204 178.05 5.49141 185.314C4.31086 193.081 5.56408 200.886 4.76663 208.676C4.9851 212.487 4.35703 216.922 6.79931 220.091C10.5578 223.428 15.4918 225.186 19.6293 228.068C32.0503 235.089 44.7088 241.795 57.8436 247.398C65.272 247.937 71.3898 242.815 78.2247 240.84C82.606 238.975 86.9843 236.569 91.3888 235.073C94.4601 240.341 101.583 242.212 107.147 239.785C114.218 237.917 121.315 235.542 127.646 231.983C134.179 226.731 137.223 218.687 140.876 211.437C149.38 211.179 199.441 194.819 207.916 194.202ZM207.916 194.202C211.3 200.652 204.251 187.918 207.916 194.202ZM207.916 194.202C203.019 200.373 167.378 241.332 162.154 247.276C154.204 245.921 145.755 245.252 137.881 247.176C128.104 251.118 121.504 259.863 113.145 265.655C110.55 268.431 111.321 273.332 114.504 275.21C111.932 277.32 108.339 278.555 105.541 280.571C99.1649 284.408 92.9645 288.51 86.9516 292.877C84.0028 312.129 81.5319 331.656 81.6181 351.144C84.9118 358.509 93.7718 360.368 99.4495 365.415C105.407 370.028 112.544 372.811 118.785 377.144C123.06 379.448 128.19 383.098 133.171 380.434C149.245 371.81 165.235 362.622 179.976 351.9C184.204 346.509 182.688 339.172 184.251 332.942C184.862 327.716 185.294 322.476 185.772 317.242C191.883 317.327 197.195 312.466 197.869 306.586C199.908 299.288 201.423 291.686 201.165 284.124C199.547 276.273 194.21 269.854 189.694 263.38C194.335 255.014 203.701 202.803 207.916 194.202ZM207.916 194.202C214.325 194.582 201.498 194.1 207.916 194.202ZM207.916 194.202C211.462 202.544 228.897 254.799 232.109 263.273C226.877 269.348 222.085 276.226 219.854 283.92C218.946 291.321 220.915 298.705 222.486 305.872C224.089 309.563 222.22 314.946 226.536 317.211C228.046 318.35 230.2 318.111 231.73 318.306C232.878 319.246 233.738 320.301 233.092 321.816C233.27 331.147 233.551 340.531 234.84 349.765C250.197 362.148 266.363 373.701 283.545 383.512C291.394 384.638 297.286 378.386 304.237 376.054C311.722 373.396 317.797 368.381 325.017 365.201C328.673 362.902 333.763 361.071 335.139 356.693C335.811 352.066 335.073 347.347 335.513 342.682C335.522 328.54 335.26 314.256 333.361 300.266C329.53 293.125 321.201 290.352 315.505 285.026C312.293 282.733 308.636 280.677 305.807 278.077C308.834 272.998 307.117 266.226 302.401 262.765C296.681 257.12 290.426 251.472 282.953 248.246C275.506 246.278 267.399 247.521 259.967 247.956C254.498 239.264 213.812 202.752 207.916 194.202ZM207.916 194.202C211.065 189.494 204.872 198.968 207.916 194.202ZM207.916 194.202C217.826 195.423 271.216 210.544 281.112 211.902C283.876 219.344 287.569 226.778 293.148 232.564C300.339 238.209 309.786 239.679 318.172 242.869C321.679 245.166 327.1 244.831 329.074 240.833C330.636 240.903 331.986 238.586 333.247 240.416C341.716 244.932 350.222 249.352 359.111 252.993C377.636 245.906 396.036 238.235 413.245 228.526C418.308 222.329 415.204 213.783 417.06 206.624C417.811 198.071 417.291 189.469 417.74 180.899C417.67 176.493 416.829 171.375 412.332 169.289C396.534 160.61 380.936 150.989 363.974 144.511C356.537 144.559 350.441 149.385 343.529 151.461C339.415 153.296 335.262 155.456 331.096 156.903C328.048 151.659 320.914 149.742 315.356 152.192C308.184 154.173 300.804 156.435 294.457 160.289C288.243 165.62 285.109 173.419 281.678 180.575C271.267 180.916 218.375 193.451 207.916 194.202ZM207.916 194.202C205.301 189.107 210.713 199.215 207.916 194.202Z" stroke="black" stroke-opacity="0.2" stroke-width="0.520613"/>
                                    <g filter="url(#filter0_d)">
                                    <path d="M143.506 195.649L48.1277 193.849L9.33105 215.661" fill="white"/>
                                    <path d="M143.506 195.649L48.1277 193.849L9.33105 215.661" stroke="black" stroke-width="0.216255"/>
                                    <path d="M143.506 194.627L48.6796 192.762L10.0195 167.473" fill="white"/>
                                    <path d="M143.506 194.627L48.6796 192.762L10.0195 167.473" stroke="black" stroke-width="0.232424"/>
                                    <path d="M55.4155 239.374L114.771 195.744L91.2506 226.096" fill="white"/>
                                    <path d="M55.4155 239.374L114.771 195.744L91.2506 226.096" stroke="black" stroke-width="0.217365"/>
                                    <path d="M55.4155 147.516L114.771 191.146L91.2506 160.799" fill="white"/>
                                    <path d="M55.4155 147.516L114.771 191.146L91.2506 160.799" stroke="black" stroke-width="0.217365"/>
                                    <path d="M174.659 130.773L118.185 46.2019L90.9043 32.6932" fill="white"/>
                                    <path d="M174.659 130.773L118.185 46.2019L90.9043 32.6932" stroke="black" stroke-width="0.216255"/>
                                    <path d="M175.68 129.751L130.739 39.1501L132.449 9.19495" fill="white"/>
                                    <path d="M175.68 129.751L130.739 39.1501L132.449 9.19495" stroke="black" stroke-width="0.232424"/>
                                    <path d="M92.5566 83.4047L160.808 111.937L122.213 107.164" fill="white"/>
                                    <path d="M92.5566 83.4047L160.808 111.937L122.213 107.164" stroke="black" stroke-width="0.217365"/>
                                    <path d="M173.77 37.4783L164.874 109.641L179.948 74.5159" fill="white"/>
                                    <path d="M173.77 37.4783L164.874 109.641L179.948 74.5159" stroke="black" stroke-width="0.217365"/>
                                    <path d="M250.242 125.665L293.081 37.4483L293.14 9.19495" fill="white"/>
                                    <path d="M250.242 125.665L293.081 37.4483L293.14 9.19495" stroke="black" stroke-width="0.216255"/>
                                    <path d="M252.285 125.665L307.077 46.4584L335.018 34.7366" fill="white"/>
                                    <path d="M252.285 125.665L307.077 46.4584L335.018 34.7366" stroke="black" stroke-width="0.232424"/>
                                    <path d="M249.025 36.9318L257.921 109.094L242.847 73.9694" fill="white"/>
                                    <path d="M249.025 36.9318L257.921 109.094L242.847 73.9694" stroke="black" stroke-width="0.217365"/>
                                    <path d="M330.238 82.8583L261.987 111.391L300.576 106.618" fill="white"/>
                                    <path d="M330.238 82.8583L261.987 111.391L300.576 106.618" stroke="black" stroke-width="0.217365"/>
                                    <path d="M291.098 192.118L390.789 193.094L414.687 170.618" fill="white"/>
                                    <path d="M291.098 192.118L390.789 193.094L414.687 170.618" stroke="black" stroke-width="0.216255"/>
                                    <path d="M292.119 195.138L390.162 196.235L413.665 218.636" fill="white"/>
                                    <path d="M292.119 195.138L390.162 196.235L413.665 218.636" stroke="black" stroke-width="0.232424"/>
                                    <path d="M368.346 146.423L308.997 190.053L332.511 159.701" fill="white"/>
                                    <path d="M368.346 146.423L308.997 190.053L332.511 159.701" stroke="black" stroke-width="0.217365"/>
                                    <path d="M368.346 238.275L308.997 194.645L332.511 224.998" fill="white"/>
                                    <path d="M368.346 238.275L308.997 194.645L332.511 224.998" stroke="black" stroke-width="0.217365"/>
                                    <path d="M254.328 258.992L294.599 331.338L333.283 353.341" fill="white"/>
                                    <path d="M254.328 258.992L294.599 331.338L333.283 353.341" stroke="black" stroke-width="0.216255"/>
                                    <path d="M250.242 260.524L293.14 348.054L291.511 376.994" fill="white"/>
                                    <path d="M250.242 260.524L293.14 348.054L291.511 376.994" stroke="black" stroke-width="0.232424"/>
                                    <path d="M331.206 302.386L262.954 273.854L301.549 278.627" fill="white"/>
                                    <path d="M331.206 302.386L262.954 273.854L301.549 278.627" stroke="black" stroke-width="0.217365"/>
                                    <path d="M249.972 348.387L258.413 275.849L244.113 311.157" fill="white"/>
                                    <path d="M249.972 348.387L258.413 275.849L244.113 311.157" stroke="black" stroke-width="0.217365"/>
                                    <path d="M175.68 257.459L130.797 347.219L130.739 375.972" fill="white"/>
                                    <path d="M175.68 257.459L130.797 347.219L130.739 375.972" stroke="black" stroke-width="0.216255"/>
                                    <path d="M173.637 256.438L117.496 339.204L88.8613 351.452" fill="white"/>
                                    <path d="M173.637 256.438L117.496 339.204L88.8613 351.452" stroke="black" stroke-width="0.232424"/>
                                    <path d="M174.743 348.865L165.841 276.703L180.916 311.828" fill="white"/>
                                    <path d="M174.743 348.865L165.841 276.703L180.916 311.828" stroke="black" stroke-width="0.217365"/>
                                    <path d="M93.5298 302.939L161.781 274.406L123.187 279.179" fill="white"/>
                                    <path d="M93.5298 302.939L161.781 274.406L123.187 279.179" stroke="black" stroke-width="0.217365"/>
                                    </g>
                                    </g>
                                    <defs>
                                    <filter id="filter0_d" x="5.27783" y="9.18835" width="413.483" height="375.812" filterUnits="userSpaceOnUse" color-interpolation-filters="sRGB">
                                    <feFlood flood-opacity="0" result="BackgroundImageFix"/>
                                    <feColorMatrix in="SourceAlpha" type="matrix" values="0 0 0 0 0 0 0 0 0 0 0 0 0 0 0 0 0 0 127 0" result="hardAlpha"/>
                                    <feOffset dy="4"/>
                                    <feGaussianBlur stdDeviation="2"/>
                                    <feComposite in2="hardAlpha" operator="out"/>
                                    <feColorMatrix type="matrix" values="0 0 0 0 0 0 0 0 0 0 0 0 0 0 0 0 0 0 0.25 0"/>
                                    <feBlend mode="normal" in2="BackgroundImageFix" result="effect1_dropShadow"/>
                                    <feBlend mode="normal" in="SourceGraphic" in2="effect1_dropShadow" result="shape"/>
                                    </filter>
                                    <clipPath id="clip0">
                                    <rect width="422" height="382" fill="white"/>
                                    </clipPath>
                                    </defs>
                                    </svg>
