<svg width="414" height="374" viewBox="0 0 414 374" fill="none" xmlns="http://www.w3.org/2000/svg">
<g clip-path="url(#clip0)">
<g filter="url(#filter0_d)">
<path d="M284.601 0.0522312C267.442 9.31019 250.661 19.3079 235.211 31.098C231.777 41.4541 232.393 52.5614 231.05 63.2305C231.3 64.6075 230.981 65.8537 229.348 65.2562C223.392 65.8366 219.377 71.2366 218.755 76.7618C217.117 83.7721 215.455 91.0215 215.96 98.2253C217.692 106.044 223.038 112.599 227.692 118.835C226.472 122.107 224.386 125.533 223.061 128.924C220.667 134.17 218.256 139.411 215.856 144.652C209.296 144.327 202.735 144.066 196.169 143.997C192.584 135.946 188.627 127.968 185.402 119.791C190.597 113.64 195.234 106.652 197.349 98.9195C198.383 89.5363 194.723 80.4718 193.194 71.4073C193.642 67.0999 189.063 64.1808 185.077 64.9376C183.932 63.9304 182.863 62.872 183.514 61.2731C183.183 51.9355 182.753 42.558 181.318 33.3399C165.908 21.2482 149.574 10.2434 132.543 0.49607C124.716 -0.92648 118.685 5.40102 111.939 8.02989C107.314 9.86214 102.677 11.8423 98.9523 15.1142C92.9034 18.7502 84.5187 20.9979 81.3578 27.8432C79.8179 35.1323 81.0324 42.723 80.9801 50.1203C81.5495 61.3698 81.5727 72.7616 83.3566 83.8916C85.2044 89.1266 91.1021 91.3515 95.1231 94.7599C100.492 98.635 106.39 102.18 111.462 106.157C108.342 111.597 110.69 118.625 115.727 122.033C121.189 126.989 126.924 132.048 133.653 135.246C141.457 137.721 150.039 136.059 157.837 135.621C160.539 140.782 164.839 145.039 168.046 149.961C169.632 152.834 174.356 155.645 170.62 158.638C167.099 163.816 163.706 169.097 160.492 174.474C152.764 173.438 144.885 173.188 137.192 171.879C134.17 164.351 130.452 156.635 124.339 151.07C115.844 145.169 105.065 143.952 95.6286 140.117C92.4676 139.434 89.9981 142.04 88.2956 144.1C87.2148 144.356 86.0934 146.194 85.2625 144.617C76.6919 140.003 67.8191 135.923 58.8417 132.133C40.3872 139.143 22.3221 147.326 5.30862 157.153C-0.153345 163.247 2.96116 172.033 1.41555 179.322C0.358016 187.106 1.7351 194.89 1.06107 202.692C1.33998 206.498 0.782162 210.942 3.27491 214.072C7.08666 217.35 12.0489 219.028 16.2326 221.845C28.766 228.667 41.5319 235.171 54.7568 240.566C62.1944 240.987 68.2316 235.769 75.0358 233.686C79.388 231.751 83.7285 229.276 88.1097 227.711C91.2648 232.929 98.4177 234.688 103.944 232.173C110.986 230.192 118.046 227.706 124.321 224.047C130.771 218.692 133.688 210.601 137.227 203.295C145.728 202.902 154.147 201.667 162.613 200.916C166.1 207.312 169.632 213.696 173.398 219.922C168.598 226.169 164.205 232.764 159.075 238.79C151.102 237.561 142.642 237.026 134.798 239.075C125.083 243.172 118.621 252.02 110.353 257.943C107.802 260.76 108.65 265.648 111.863 267.475C109.324 269.625 105.751 270.917 102.985 272.977C96.6687 276.915 90.5327 281.114 84.5884 285.575C81.9446 304.871 79.7831 324.433 80.1782 343.917C83.589 351.229 92.4793 352.947 98.2376 357.903C104.269 362.421 111.451 365.09 117.761 369.323C122.073 371.56 127.261 375.127 132.201 372.385C148.139 363.508 163.985 354.068 178.557 343.114C182.7 337.657 181.068 330.346 182.532 324.092C183.061 318.857 183.409 313.611 183.804 308.37C189.917 308.359 195.153 303.414 195.734 297.524C197.657 290.196 199.051 282.571 198.674 275.014C196.931 267.19 191.492 260.857 186.872 254.455C191.381 246.017 194.926 237.123 199.005 228.457C205.42 228.736 211.846 228.849 218.267 228.849C221.945 237.134 225.943 245.254 229.29 253.676C224.153 259.833 219.47 266.786 217.361 274.513C216.57 281.928 218.656 289.279 220.342 296.421C222.003 300.085 220.219 305.496 224.572 307.693C226.1 308.808 228.25 308.535 229.784 308.706C230.946 309.628 231.823 310.669 231.202 312.194C231.527 321.52 231.957 330.898 233.392 340.11C248.947 352.247 265.298 363.542 282.637 373.079C290.505 374.08 296.298 367.736 303.212 365.295C310.656 362.518 316.652 357.408 323.822 354.114C327.442 351.758 332.504 349.846 333.811 345.447C334.409 340.81 333.596 336.104 333.962 331.432C333.747 317.292 333.259 303.016 331.138 289.057C327.193 281.979 318.82 279.339 313.038 274.104C309.79 271.862 306.1 269.864 303.23 267.31C306.176 262.183 304.351 255.44 299.581 252.054C293.77 246.5 287.425 240.953 279.9 237.846C272.422 235.996 264.334 237.368 256.908 237.92C251.3 229.316 244.618 221.071 238.587 212.615C241.661 207.858 244.717 203.113 247.686 198.299C257.617 199.363 267.564 200.336 277.483 201.537C280.365 208.934 284.177 216.308 289.848 222.004C297.129 227.535 306.6 228.855 315.037 231.911C318.581 234.153 323.997 233.732 325.909 229.703C327.472 229.749 328.785 227.41 330.075 229.219C338.616 233.601 347.193 237.886 356.141 241.385C374.555 234.005 392.835 226.044 409.891 216.064C414.857 209.787 411.617 201.292 413.36 194.105C413.976 185.541 413.318 176.949 413.632 168.374C413.492 163.97 412.57 158.866 408.039 156.851C392.103 148.424 376.35 139.052 359.285 132.844C351.847 133.009 345.827 137.931 338.947 140.117C334.863 142.017 330.743 144.242 326.6 145.755C323.468 140.56 316.304 138.757 310.783 141.294C303.642 143.388 296.298 145.767 290.011 149.722C283.88 155.15 280.871 162.997 277.553 170.206C267.146 170.713 256.623 172.204 246.175 173.12C243.479 168.067 240.702 163.082 237.826 158.115C243.805 150.37 249.453 142.347 255.472 134.66C263.561 135.906 272.195 136.463 280.115 134.301C288.738 130.756 294.572 123.177 301.655 117.555C305.136 115.797 307.355 111.318 304.81 107.916C304.38 107.051 301.8 105.782 303.741 105.338C312.8 100.001 321.725 94.2307 330.121 87.8919C332.777 68.5964 334.897 49.0562 334.555 29.5673C331.26 22.2554 322.259 20.6223 316.629 15.6092C309.424 10.7953 301.475 7.09101 294.078 2.53885C291.173 1.15044 287.849 -0.294871 284.601 0.0522312V0.0522312Z" fill="white" stroke="black" stroke-opacity="0.2" stroke-width="0.520613"/>
<path d="M206.557 189.666L48.1196 188.739L10.1357 210.088" fill="white"/>
<path d="M206.557 189.666L48.1196 188.739L10.1357 210.088" stroke="black" stroke-width="0.216255"/>
<path d="M206.557 188.881L48.6598 187.674L10.8096 162.922" fill="white"/>
<path d="M206.557 188.881L48.6598 187.674L10.8096 162.922" stroke="black" stroke-width="0.232424"/>
<path d="M55.2549 233.299L113.367 190.594L90.3393 220.302" fill="white"/>
<path d="M55.2549 233.299L113.367 190.594L90.3393 220.302" stroke="black" stroke-width="0.217365"/>
<path d="M55.2549 143.388L113.367 186.093L90.3393 156.39" fill="white"/>
<path d="M55.2549 143.388L113.367 186.093L90.3393 156.39" stroke="black" stroke-width="0.217365"/>
<path d="M205.86 187.14L127.457 52.3047L89.584 30.7673" fill="white"/>
<path d="M205.86 187.14L127.457 52.3047L89.584 30.7673" stroke="black" stroke-width="0.216255"/>
<path d="M206.551 186.747L128.672 52.2307L131.635 7.7561" fill="white"/>
<path d="M206.551 186.747L128.672 52.2307L131.635 7.7561" stroke="black" stroke-width="0.232424"/>
<path d="M91.6177 80.6362L158.44 108.564L120.653 103.892" fill="white"/>
<path d="M91.6177 80.6362L158.44 108.564L120.653 103.892" stroke="black" stroke-width="0.217365"/>
<path d="M171.13 35.6836L162.42 106.316L177.179 71.9359" fill="white"/>
<path d="M171.13 35.6836L162.42 106.316L177.179 71.9359" stroke="black" stroke-width="0.217365"/>
<path d="M207.742 185.279L287.783 51.3715L287.894 8.4845" fill="white"/>
<path d="M207.742 185.279L287.783 51.3715L287.894 8.4845" stroke="black" stroke-width="0.216255"/>
<path d="M208.434 185.672L288.458 52.3673L329.265 32.6394" fill="white"/>
<path d="M208.434 185.672L288.458 52.3673L329.265 32.6394" stroke="black" stroke-width="0.232424"/>
<path d="M244.808 35.1487L253.518 105.781L238.759 71.4009" fill="white"/>
<path d="M244.808 35.1487L253.518 105.781L238.759 71.4009" stroke="black" stroke-width="0.217365"/>
<path d="M324.32 80.1013L257.499 108.029L295.279 103.357" fill="white"/>
<path d="M324.32 80.1013L257.499 108.029L295.279 103.357" stroke="black" stroke-width="0.217365"/>
<path d="M210.328 185.95L368.772 186.878L406.753 165.523" fill="white"/>
<path d="M210.328 185.95L368.772 186.878L406.753 165.523" stroke="black" stroke-width="0.216255"/>
<path d="M210.328 186.73L368.225 187.942L406.078 212.694" fill="white"/>
<path d="M210.328 186.73L368.225 187.942L406.078 212.694" stroke="black" stroke-width="0.232424"/>
<path d="M361.63 142.318L303.524 185.023L326.546 155.314" fill="white"/>
<path d="M361.63 142.318L303.524 185.023L326.546 155.314" stroke="black" stroke-width="0.217365"/>
<path d="M361.63 232.223L303.524 189.518L326.546 219.227" fill="white"/>
<path d="M361.63 232.223L303.524 189.518L326.546 219.227" stroke="black" stroke-width="0.217365"/>
<path d="M211.031 188.477L289.428 323.312L327.301 344.849" fill="white"/>
<path d="M211.031 188.477L289.428 323.312L327.301 344.849" stroke="black" stroke-width="0.216255"/>
<path d="M210.334 188.87L288.213 323.386L285.256 367.86" fill="white"/>
<path d="M210.334 188.87L288.213 323.386L285.256 367.86" stroke="black" stroke-width="0.232424"/>
<path d="M325.268 294.975L258.446 267.047L296.232 271.719" fill="white"/>
<path d="M325.268 294.975L258.446 267.047L296.232 271.719" stroke="black" stroke-width="0.217365"/>
<path d="M245.755 339.933L254.471 269.301L239.707 303.681" fill="white"/>
<path d="M245.755 339.933L254.471 269.301L239.707 303.681" stroke="black" stroke-width="0.217365"/>
<path d="M209.143 190.338L129.102 324.239L128.997 367.132" fill="white"/>
<path d="M209.143 190.338L129.102 324.239L128.997 367.132" stroke="black" stroke-width="0.216255"/>
<path d="M208.452 189.945L128.434 323.249L87.6201 342.977" fill="white"/>
<path d="M208.452 189.945L128.434 323.249L87.6201 342.977" stroke="black" stroke-width="0.232424"/>
<path d="M172.083 340.468L163.367 269.835L178.126 304.216" fill="white"/>
<path d="M172.083 340.468L163.367 269.835L178.126 304.216" stroke="black" stroke-width="0.217365"/>
<path d="M92.5703 295.515L159.392 267.588L121.606 272.259" fill="white"/>
<path d="M92.5703 295.515L159.392 267.588L121.606 272.259" stroke="black" stroke-width="0.217365"/>
</g>
<circle cx="207.5" cy="188.5" r="66.5" fill="white"/>
</g>
<defs>
<filter id="filter0_d" x="-3.26025" y="-0.260254" width="421.155" height="381.899" filterUnits="userSpaceOnUse" color-interpolation-filters="sRGB">
<feFlood flood-opacity="0" result="BackgroundImageFix"/>
<feColorMatrix in="SourceAlpha" type="matrix" values="0 0 0 0 0 0 0 0 0 0 0 0 0 0 0 0 0 0 127 0" result="hardAlpha"/>
<feOffset dy="4"/>
<feGaussianBlur stdDeviation="2"/>
<feComposite in2="hardAlpha" operator="out"/>
<feColorMatrix type="matrix" values="0 0 0 0 0 0 0 0 0 0 0 0 0 0 0 0 0 0 0.25 0"/>
<feBlend mode="normal" in2="BackgroundImageFix" result="effect1_dropShadow"/>
<feBlend mode="normal" in="SourceGraphic" in2="effect1_dropShadow" result="shape"/>
</filter>
<clipPath id="clip0">
<rect width="413.16" height="373.9" fill="white"/>
</clipPath>
</defs>
</svg>
